<svg xmlns="http://www.w3.org/2000/svg" width="583" height="514" viewBox="0 0 583 514">
    <defs>
        <linearGradient id="linear-gradient" x2="1" y1=".5" y2=".5" gradientUnits="objectBoundingBox">
            <stop offset="0" stop-color="#0086ff"/>
            <stop offset="1" stop-color="#00d8ad"/>
        </linearGradient>
        <style>
            .cls-1{fill:#191d49}.cls-2{fill:#eff0ff}
        </style>
    </defs>
    <g id="Group_612" transform="translate(-96 -297)">
        <rect id="Rectangle_82" width="583" height="514" class="cls-1" rx="41" transform="translate(96 297)"/>
        <g id="Group_602" transform="translate(143.607 483.469)">
            <g id="Group_601" transform="translate(-.001 53.224)">
                <path id="Path_1445" d="M114.831 268.152c-18.483 0-32.924-9.179-33.536-26.558h22.276c.61 6.609 4.772 9.79 10.647 9.79 6.12 0 10.036-3.06 10.036-8.077 0-15.911-42.959-7.344-42.714-37.819 0-16.278 13.34-25.335 31.332-25.335 18.726 0 31.332 9.3 32.189 25.7h-22.642c-.368-5.507-4.285-8.813-9.913-8.934-5.019-.123-8.813 2.446-8.813 7.833 0 14.931 42.47 8.2 42.47 36.961 0 14.444-11.263 26.439-31.332 26.439z" class="cls-2" transform="translate(-81.295 -180.152)"/>
                <path id="Path_1446" d="M155.621 216.177H147.3V198.8h8.322v-16.647h20.928V198.8h13.708v17.379H176.55v27.416c0 4.039 1.714 5.752 6.364 5.752h7.467v17.747h-10.649c-14.2 0-24.111-6-24.111-23.744z" class="cls-2" transform="translate(-74.597 -179.949)"/>
                <path id="Path_1447" d="M264.461 265.558h-20.928v-9.3c-4.161 5.875-11.506 10.036-20.685 10.036-15.789 0-26.437-10.891-26.437-29.128v-39.9h20.806v37.084c0 9.3 5.264 14.442 13.1 14.442 8.077 0 13.219-5.141 13.219-14.442v-37.086h20.927z" class="cls-2" transform="translate(-69.612 -178.415)"/>
                <path id="Path_1448" d="M349.09 224.223c0 25.456-17.626 42.959-45.041 42.959h-32.188v-85.919h32.189c27.415 0 45.04 17.38 45.04 42.96zm-46.39 24.845c15.788 0 25.089-9.056 25.089-24.845s-9.3-25.09-25.089-25.09h-9.91v49.935z" class="cls-2" transform="translate(-61.956 -180.039)"/>
                <path id="Path_1449" d="M387.845 266.629c-20.072 0-35.25-13.464-35.25-35.126s15.545-35.126 35.494-35.126c20.072 0 35.492 13.461 35.492 35.126s-15.665 35.126-35.736 35.126zm0-18.115c7.466 0 14.442-5.507 14.442-17.011 0-11.627-6.853-17.014-14.2-17.014-7.588 0-14.2 5.386-14.2 17.014.005 11.503 6.37 17.011 13.958 17.011z" class="cls-2" transform="translate(-53.762 -178.506)"/>
                <path id="Path_1450" d="M455.277 266.629c-18.236 0-30.476-10.159-31.454-23.378h20.684c.49 4.774 4.774 7.956 10.526 7.956 5.384 0 8.2-2.449 8.2-5.507 0-11.015-37.207-3.061-37.207-28.151 0-11.627 9.913-21.173 27.783-21.173 17.624 0 27.416 9.79 28.762 23.255h-19.338c-.612-4.652-4.161-7.713-10.037-7.713-4.9 0-7.589 1.958-7.589 5.264 0 10.894 36.964 3.182 37.33 28.639 0 11.871-10.525 20.808-27.66 20.808z" class="cls-2" transform="translate(-46.534 -178.506)"/>
                <path id="Path_1451" d="M492.927 216.177H484.6V198.8h8.323v-16.647h20.928V198.8h13.709v17.379h-13.705v27.416c0 4.039 1.714 5.752 6.364 5.752h7.467v17.747h-10.649c-14.2 0-24.11-6-24.11-23.744z" class="cls-2" transform="translate(-40.366 -179.949)"/>
            </g>
            <path id="Path_1427" fill="url(#linear-gradient)" d="M379.8 134.643a4.758 4.758 0 0 0-6.286-2.395l-76.534 34.4a4.749 4.749 0 0 0-.753.442 87.746 87.746 0 0 1 36.91 14.166l25.9-23.5c.878-.935 2.011-.071 1.27 1.048l-20.3 27.892a72.553 72.553 0 0 1 20.854 33.216 4.511 4.511 0 0 0 .177-.533l19.05-81.716a4.757 4.757 0 0 0-.288-3.02z" transform="translate(-59.484 -131.831)"/>
            <path id="Path_1452" d="M332.46 176.827l-29.5 29.142 8.137 7.555 28.303-31.339" class="cls-1" transform="translate(-58.801 -127.265)"/>
        </g>
    </g>
</svg>
