<svg xmlns="http://www.w3.org/2000/svg" width="35" height="35" viewBox="0 0 35 35">
    <g>
        <g transform="translate(-723 -470) translate(271 -5466.302)">
            <circle cx="17.5" cy="17.5" r="17.5" fill="#191d49" transform="translate(452 5936.302)"/>
        </g>
        <path fill="#fff" d="M15.176 12.2l-1.9-.217a1.493 1.493 0 0 0-1.23.427l-1.38 1.38a11.281 11.281 0 0 1-4.945-4.947l1.387-1.387a1.493 1.493 0 0 0 .427-1.23l-.217-1.889A1.5 1.5 0 0 0 5.826 3.01h-1.3a1.488 1.488 0 0 0-1.5 1.552 12.74 12.74 0 0 0 11.917 11.914 1.488 1.488 0 0 0 1.552-1.5v-1.3a1.486 1.486 0 0 0-1.319-1.476z" transform="translate(-723 -470) translate(730.745 477.749)"/>
    </g>
</svg>
