<svg xmlns="http://www.w3.org/2000/svg" width="35" height="35" viewBox="0 0 35 35">
    <g>
        <g transform="translate(-723 -470) translate(271 -5466.302)">
            <circle cx="17.5" cy="17.5" r="17.5" fill="#191d49" transform="translate(452 5936.302)"/>
        </g>
        <path fill="#fff" d="M15.015 4.71H2.965A2.468 2.468 0 0 0 .5 7.175v7.438a2.468 2.468 0 0 0 2.465 2.465h12.05a2.468 2.468 0 0 0 2.465-2.465V7.175a2.468 2.468 0 0 0-2.465-2.465zm.822 9.9a.82.82 0 0 1-.822.822H2.965a.82.82 0 0 1-.822-.822V7.224l5.318 4.2a2.463 2.463 0 0 0 3.056 0l5.318-4.2z" transform="translate(-723 -470) translate(731.5 476.29)"/>
    </g>
</svg>
