<svg xmlns="http://www.w3.org/2000/svg" width="74.113" height="72.756" viewBox="0 0 74.113 72.756">
    <defs>
        <linearGradient id="ft9ipbumka" x1=".5" x2=".5" y2="1" gradientUnits="objectBoundingBox">
            <stop offset="0" stop-color="#3586ff"/>
            <stop offset="1" stop-color="#00d8ad"/>
        </linearGradient>
    </defs>
    <path fill="url(#ft9ipbumka)" d="M-3963.785-534.264l-31-5.155v2.363a1.484 1.484 0 0 1-1.482 1.485h-13.249a1.484 1.484 0 0 1-1.483-1.485v-31.455a1.484 1.484 0 0 1 1.483-1.485h13.249a1.484 1.484 0 0 1 1.482 1.485v2.1h9.341a15.38 15.38 0 0 1 9.5 3.306 12.413 12.413 0 0 0 7.669 2.666h3.6a5.933 5.933 0 0 1 5.92 5.931 5.841 5.841 0 0 1-.3 1.787l15.524-3.428a5.437 5.437 0 0 1 4.6 1.078 5.453 5.453 0 0 1 2.042 4.268 5.445 5.445 0 0 1-3.022 4.9l-22.969 11.503a1.479 1.479 0 0 1-.663.157 1.416 1.416 0 0 1-.242-.021zm-31-8.165l31.011 5.157 22.541-11.291a2.49 2.49 0 0 0 1.383-2.241 2.5 2.5 0 0 0-.934-1.953 2.491 2.491 0 0 0-2.105-.494l-20.521 4.532-.116.025-.061.014a.169.169 0 0 1-.047 0 .18.18 0 0 0-.041 0 5.872 5.872 0 0 1-.992.1h-16.1a1.483 1.483 0 0 1-1.482-1.485 1.483 1.483 0 0 1 1.482-1.485h16.1a2.944 2.944 0 0 0 .544-.055l.117-.026a2.961 2.961 0 0 0 2.294-2.881 2.962 2.962 0 0 0-2.956-2.961h-3.6a15.381 15.381 0 0 1-9.505-3.306 12.411 12.411 0 0 0-7.668-2.666h-9.341zm-13.25 3.888h10.285v-28.486h-10.285zm28.3-48.167A20.3 20.3 0 0 1-3959.474-607a20.3 20.3 0 0 1 20.258 20.292 20.3 20.3 0 0 1-20.258 20.292 20.3 20.3 0 0 1-20.258-20.292zm2.965 0a17.327 17.327 0 0 0 17.293 17.323 17.328 17.328 0 0 0 17.293-17.323 17.328 17.328 0 0 0-17.293-17.322 17.327 17.327 0 0 0-17.29 17.322zm15.811 12.25v-1.815a6.056 6.056 0 0 1-4.57-5.857 1.484 1.484 0 0 1 1.482-1.485 1.484 1.484 0 0 1 1.482 1.485 3.094 3.094 0 0 0 3.087 3.093 3.094 3.094 0 0 0 3.088-3.093c0-.526 0-2.129-3.5-3.153-4.659-1.362-5.636-4.016-5.636-6a6.056 6.056 0 0 1 4.57-5.857v-1.815a1.484 1.484 0 0 1 1.482-1.485 1.484 1.484 0 0 1 1.482 1.485v1.815a6.057 6.057 0 0 1 4.571 5.857 1.484 1.484 0 0 1-1.482 1.485 1.483 1.483 0 0 1-1.482-1.485 3.1 3.1 0 0 0-3.088-3.093 3.094 3.094 0 0 0-3.087 3.093c0 .526 0 2.129 3.5 3.153 4.66 1.362 5.638 4.016 5.638 6a6.057 6.057 0 0 1-4.571 5.857v1.815a1.484 1.484 0 0 1-1.482 1.485 1.484 1.484 0 0 1-1.482-1.485z" transform="translate(4011 607)"/>
</svg>
