<svg xmlns="http://www.w3.org/2000/svg" width="75.313" height="71.244" viewBox="0 0 75.313 71.244">
    <defs>
        <linearGradient id="rloy1g56ua" x1=".5" x2=".5" y2="1" gradientUnits="objectBoundingBox">
            <stop offset="0" stop-color="#3586ff"/>
            <stop offset="1" stop-color="#00d8ad"/>
        </linearGradient>
    </defs>
    <path fill="url(#rloy1g56ua)" d="M-3968.038-541.734h-30.924A12.053 12.053 0 0 1-4011-553.769c0-10.043 3.658-19.555 10.883-28.274a57.5 57.5 0 0 1 9.709-9.268l-5.93-8.972a3.72 3.72 0 0 1-.5-2.947 3.7 3.7 0 0 1 1.834-2.342 8.986 8.986 0 0 1 4.335-1.065c2.407 0 4.974.775 8.325 2.019a4.566 4.566 0 0 0 1.533.258 12.238 12.238 0 0 0 4.441-1.244 13.588 13.588 0 0 1 5.086-1.4 3.644 3.644 0 0 1 3.149 1.785 3.659 3.659 0 0 1 .081 3.64l-5.447 10.127a56.769 56.769 0 0 1 9.887 9.412 35.435 35.435 0 0 1 5.905 9.266 18.743 18.743 0 0 1 3.365-.3 18.682 18.682 0 0 1 18.657 18.659 18.681 18.681 0 0 1-18.657 18.659 18.555 18.555 0 0 1-13.694-5.978zm9.736-27.6l-.065.019-.059.015a15.453 15.453 0 0 0-11.349 14.882 15.253 15.253 0 0 0 3.254 9.479 15.329 15.329 0 0 0 12.176 5.951 15.444 15.444 0 0 0 15.429-15.43 15.444 15.444 0 0 0-15.429-15.43 15.386 15.386 0 0 0-3.955.518zm-39.329-10.646c-6.725 8.121-10.142 16.938-10.142 26.216a8.82 8.82 0 0 0 8.81 8.808h28.524a18.469 18.469 0 0 1-2.566-9.462 18.7 18.7 0 0 1 12.162-17.492 32.818 32.818 0 0 0-5.259-8.062 54.066 54.066 0 0 0-9.512-9.01h-12.5a54.063 54.063 0 0 0-9.516 9.006zm22.5-22.655c-.338.141-.692.291-1.063.439l-3.147 9.976h2.579l5.854-10.884a.442.442 0 0 0-.015-.46.4.4 0 0 0-.355-.21 11.274 11.274 0 0 0-3.85 1.143zm-8.722 10.415h2.824l2.941-9.323a10.123 10.123 0 0 1-2.735.409 7.687 7.687 0 0 1-2.648-.459c-1.436-.532-2.729-.976-3.9-1.293zm-9.655-10.5a.416.416 0 0 0-.218.283.479.479 0 0 0 .064.372l6.518 9.849h1.594l-3.654-11.067a9.716 9.716 0 0 0-1.485-.124 5.782 5.782 0 0 0-2.811.686zm36.931 55.772a1.429 1.429 0 0 1 1.451-1.451 1.419 1.419 0 0 1 1.4 1.451 1.419 1.419 0 0 1-1.4 1.451 1.429 1.429 0 0 1-1.447-1.453zm.538-3.348l-.094-3.7h.679c2.67 0 4.941-.515 4.941-3.349a2.872 2.872 0 0 0-3.114-3.044 2.8 2.8 0 0 0-3.114 2.927h-2.014c-.024-2.833 2.037-4.705 5.1-4.705s5.176 1.85 5.176 4.822c0 3.419-2.366 4.824-5.644 4.824l-.07 2.225zm-25.947-3.536l-7.535-8.748.044-2.511 3.594-.086a4.115 4.115 0 0 0 3.2-2.34h-6.8v-2.511h6.5c-.649-2.036-4.851-1.689-6.5-1.775v-2.815h13.122v2.469h-3.854a4.006 4.006 0 0 1 .823 2.208h2.945v2.382l-2.729-.086c-1.516 5.24-6.02 5.11-6.02 5.11l7.1 8.7z" transform="translate(4011 607)"/>
</svg>
