<svg xmlns="http://www.w3.org/2000/svg" width="74.113" height="61.327" viewBox="0 0 74.113 61.327">
    <defs>
        <linearGradient id="tkleqzooha" x1=".5" x2=".5" y2="1" gradientUnits="objectBoundingBox">
            <stop offset="0" stop-color="#3586ff"/>
            <stop offset="1" stop-color="#00d8ad"/>
        </linearGradient>
    </defs>
    <path fill="url(#tkleqzooha)" d="M-3978.777-552.511a67.782 67.782 0 0 1-7.042.547c-15.052 0-25.181-11.236-25.181-24.41 0-13.193 12.631-23.911 25.181-23.911 15.088 0 27.254 10.718 27.254 23.911 0 7.625-2.868 14.136-8.376 18.8v11.9zm7.623.547v-7.436c5.139-4.183 8.431-9.731 8.431-16.728 0-11.021-9.962-19.955-23.1-19.955-10.427 0-20.963 8.933-20.963 19.955s8.211 19.937 20.963 19.937a50.17 50.17 0 0 0 7.542-.59zm14.058-7.271c-.544.084-1.291.174-2.127.259a32.641 32.641 0 0 0 2.622-4.485l7.133 4.766v-7.46c5.122-4.13 8.408-9.691 8.408-16.7 0-11.014-10-19.937-23.078-19.937a20.369 20.369 0 0 0-6.632 1.161 33.954 33.954 0 0 0-5.548-2.045 24.92 24.92 0 0 1 12.177-3.324c15.087 0 27.254 10.729 27.254 23.9a23.92 23.92 0 0 1-8.373 18.782v11.937zm-33.1-8.1a3.54 3.54 0 0 1 3.613-3.707 3.537 3.537 0 0 1 3.684 3.7 3.549 3.549 0 0 1-3.684 3.738 3.561 3.561 0 0 1-3.611-3.735zm6.575-4.669h-5.6l-.051-1.328a8.127 8.127 0 0 1 2.228-5.936c1.138-1.427 2.018-2.528 2.018-3.592 0-1.443-1.241-1.769-2.28-1.789a6.328 6.328 0 0 0-3.354 1.025l-.44.317-1.507-4.817.277-.157a13.048 13.048 0 0 1 6.276-1.528c5.492 0 7.44 3.281 7.44 6.091 0 2.744-1.674 4.61-3.019 6.108l-.243.272a5.926 5.926 0 0 0-1.739 4.269v1.064z" transform="translate(4011 607)"/>
</svg>
