<svg xmlns="http://www.w3.org/2000/svg" width="120.958" height="134.397" viewBox="0 0 120.958 134.397">
    <defs>
        <linearGradient id="linear-gradient" x1=".5" x2=".5" y2="1" gradientUnits="objectBoundingBox">
            <stop offset="0" stop-color="#3586ff"/>
            <stop offset="1" stop-color="#00d8ad"/>
        </linearGradient>
        <style>
            .cls-1{fill:url(#linear-gradient)}
        </style>
    </defs>
    <g id="noun_Idea_3465086" transform="translate(-9.5 -5)">
        <g id="Layer_2" transform="translate(9.5 5)">
            <path id="Path_1614" d="M41.024 118.364a3.733 3.733 0 0 0 3.733 3.733h4.674c1.493 5.839 6.511 11.2 12.783 11.2H65.5c6.272 0 11.23-5.361 12.783-11.2h4.674a3.733 3.733 0 0 0 3.733-3.733v-22.4a2.583 2.583 0 0 1 1.165-2.106 41.92 41.92 0 1 0-48.025.015 2.643 2.643 0 0 1 1.195 2.135zm7.467-20.1h30.732v5.271H48.491zm4.48-35.556l9.393 4.286a3.644 3.644 0 0 0 3.106 0l9.378-4.286L69.516 90.8H58.2zM65.5 125.831h-3.286c-1.837 0-3.733-1.613-4.853-3.733h12.992c-1.12 2.12-3.017 3.733-4.853 3.733zm13.723-11.2H48.491V111h30.732zM29.376 59.513a34.5 34.5 0 1 1 54.207 28.373 10.155 10.155 0 0 0-2.852 2.987h-3.614l6.332-33.779A3.748 3.748 0 0 0 78.222 53l-14.365 6.5-14.366-6.572a3.748 3.748 0 0 0-5.227 4.092L50.6 90.8h-3.633a10.2 10.2 0 0 0-2.852-2.987 34.5 34.5 0 0 1-14.739-28.3z" class="cls-1" transform="translate(-3.378 1.1)"/>
            <path id="Path_1615" d="M54.967 16.2V8.733a3.733 3.733 0 1 0-7.467 0V16.2a3.733 3.733 0 1 0 7.467 0z" class="cls-1" transform="translate(9.246 -5)"/>
            <path id="Path_1616" d="M34.6 24.386a3.644 3.644 0 0 0 1.852-.508 3.718 3.718 0 0 0 1.374-5.137L34.1 12.32a3.736 3.736 0 1 0-6.481 3.718l3.798 6.462a3.718 3.718 0 0 0 3.183 1.886z" class="cls-1" transform="translate(-.804 -2.315)"/>
            <path id="Path_1617" d="M24.251 29.581l-6.376-3.748a3.762 3.762 0 0 0-3.823 6.481l6.448 3.748a3.737 3.737 0 1 0 3.751-6.462z" class="cls-1" transform="translate(-8.168 5.019)"/>
            <path id="Path_1618" d="M13.233 53.147H20.7a3.733 3.733 0 1 0 0-7.467h-7.467a3.733 3.733 0 0 0 0 7.467z" class="cls-1" transform="translate(-9.5 15.068)"/>
            <path id="Path_1619" d="M15.351 72.893a3.748 3.748 0 0 0 3.255 1.882 3.823 3.823 0 0 0 1.852-.493l6.556-3.7a3.733 3.733 0 1 0-3.7-6.481l-6.556 3.7a3.733 3.733 0 0 0-1.407 5.092z" class="cls-1" transform="translate(-6.854 23.888)"/>
            <path id="Path_1620" d="M69.1 24.266a3.718 3.718 0 0 0 3.181-1.882l3.733-6.466a3.733 3.733 0 0 0-6.42-3.718l-3.718 6.421a3.718 3.718 0 0 0 1.374 5.092 3.644 3.644 0 0 0 1.85.553z" class="cls-1" transform="translate(18.063 -2.195)"/>
            <path id="Path_1621" d="M84.094 36.036l6.451-3.736a3.737 3.737 0 0 0-3.745-6.463l-6.451 3.748a3.737 3.737 0 0 0 3.748 6.466z" class="cls-1" transform="translate(24.529 5.03)"/>
            <path id="Path_1622" d="M95.433 49.4a3.718 3.718 0 0 0-3.733-3.72h-7.467a3.733 3.733 0 1 0 0 7.467H91.7a3.733 3.733 0 0 0 3.733-3.747z" class="cls-1" transform="translate(25.525 15.068)"/>
            <path id="Path_1623" d="M77.646 70.549l6.481 3.7a3.823 3.823 0 0 0 1.852.493 3.733 3.733 0 0 0 1.852-6.974l-6.481-3.7a3.733 3.733 0 0 0-3.7 6.481z" class="cls-1" transform="translate(23.226 23.917)"/>
        </g>
    </g>
</svg>
