<svg xmlns="http://www.w3.org/2000/svg" width="123.994" height="109.296" viewBox="0 0 123.994 109.296">
    <defs>
        <linearGradient id="4q29jkd61a" x1=".066" x2=".5" y1=".331" y2="1" gradientUnits="objectBoundingBox">
            <stop offset="0" stop-color="#3586ff"/>
            <stop offset="1" stop-color="#00d8ad"/>
        </linearGradient>
    </defs>
    <g>
        <path fill="url(#4q29jkd61a)" d="M136.948 42.088a34.624 34.624 0 0 0-48.885-1.349l-4.628 4.326-5.068-5.3c-.048-.049-.1-.1-.15-.144C64.874 27.917 45.564 28.54 32.3 41.105A32.386 32.386 0 0 0 22 64.888a35.339 35.339 0 0 0 9.952 24.192l10.459 11.042L45.2 103.1a8.57 8.57 0 0 0 8.009 10.987 8.6 8.6 0 0 0 8.351 9.144h.283a8.491 8.491 0 0 0 2.353 6.264 8.6 8.6 0 0 0 8.072 2.484c.149.177.3.348.459.5l5.705 5.708a8.028 8.028 0 0 0 13.71-5.65 8.03 8.03 0 0 0 7.981-8 8.029 8.029 0 0 0 7.983-7.99 8.031 8.031 0 0 0 7.968-8.706l18.608-17.828A35.332 35.332 0 0 0 145.94 66.4a32.392 32.392 0 0 0-8.992-24.312zM26.769 64.876a27.666 27.666 0 0 1 8.814-20.309c11.407-10.807 27.966-11.4 39.411-1.426l6.6 6.9L104 73.467a4.913 4.913 0 1 1-7.134 6.756L78.478 60.81a2.337 2.337 0 0 0-2.754-.513c-.251.116-6.286 2.7-14.655-6.131a2.384 2.384 0 0 0-3.462 3.279c8.207 8.666 15.262 8.447 18.431 7.726l3.552 3.75L47.85 98.95l-1.959-2.089-.006-.006L35.414 85.8a30.585 30.585 0 0 1-8.645-20.924zm24.045 37.834L82.87 72.38l5.278 5.571-32.055 30.333a3.838 3.838 0 0 1-5.278-5.573zm10.877 15.75a3.809 3.809 0 0 1-2.679-1.2 3.74 3.74 0 0 1 .161-5.339c.011-.01.017-.022.029-.033.055-.049.114-.092.168-.144l32.057-30.332 1.979 2.09A9.61 9.61 0 0 0 98 86.2a2.369 2.369 0 0 0-1.273.623l-32.3 30.586a3.816 3.816 0 0 1-2.735 1.052zm24.732 16.356a3.263 3.263 0 0 1-4.616 0L76.09 129.1a3.079 3.079 0 0 1-.279-.318 3.265 3.265 0 0 1 4.9-4.287l5.709 5.708a3.269 3.269 0 0 1 .004 4.614zm7.976-8a3.262 3.262 0 0 1-4.615 0l-5.708-5.716a3.264 3.264 0 1 1 4.616-4.616L94.4 122.2a3.262 3.262 0 0 1 0 4.616zm7.984-8a3.263 3.263 0 0 1-4.616 0l-5.706-5.716a3.265 3.265 0 1 1 4.617-4.618l5.708 5.708a3.263 3.263 0 0 1 0 4.617zm7.994-7.99a3.263 3.263 0 0 1-4.616 0l-5.71-5.707a3.264 3.264 0 1 1 4.617-4.616l5.707 5.7a3.264 3.264 0 0 1 0 4.618zm30.8-44.7a30.6 30.6 0 0 1-9.784 20.432l-17.338 16.611c-.1-.114-.2-.23-.307-.339l-5.708-5.705a8.032 8.032 0 0 0-13.712 5.639 8.022 8.022 0 0 0-7.99 8 8.022 8.022 0 0 0-7.983 8 8.035 8.035 0 0 0-7.972 7.6 8.117 8.117 0 0 0 .019 1.041 3.853 3.853 0 0 1-2.744-1.195 3.742 3.742 0 0 1 .16-5.34 2.331 2.331 0 0 0 .357-.44l31.831-30.146a2.354 2.354 0 0 0-.513-3.821 9.673 9.673 0 0 0 7.961-16.29L86.731 48.512l4.6-4.3a29.854 29.854 0 0 1 42.154 1.154 27.664 27.664 0 0 1 7.694 20.76z" transform="translate(-22 -31.246)"/>
    </g>
</svg>
