<svg xmlns="http://www.w3.org/2000/svg" width="122.749" height="35.603" viewBox="0 0 122.749 35.603">
    <defs>
        <linearGradient id="linear-gradient" x2="1" y1=".5" y2=".5" gradientUnits="objectBoundingBox">
            <stop offset="0" stop-color="#0086ff"/>
            <stop offset="1" stop-color="#00d8ad"/>
        </linearGradient>
        <style>
            .cls-1{fill:#fff}
        </style>
    </defs>
    <g id="Group_623" transform="translate(-1373.179 -483.469)">
        <g id="Group_611" transform="translate(1373.179 483.469)">
            <g id="Group_656">
                <path id="Subtraction_4" d="M8.11 21.642H0V0h8.11a13.015 13.015 0 0 1 5.547 1.144l-3.686 3.64a8.228 8.228 0 0 0-2.2-.28h-2.5v12.578h2.5a6.455 6.455 0 0 0 4.652-1.639 6.3 6.3 0 0 0 1.669-4.622 6.365 6.365 0 0 0-1.711-4.69l3.345-3.7a10.472 10.472 0 0 1 3.727 8.393 10.543 10.543 0 0 1-3.082 7.816 11.6 11.6 0 0 1-8.261 3.002z" class="cls-1" transform="translate(52.871 13.713)"/>
                <g id="Group_603" transform="translate(0 13.406)">
                    <path id="Path_1453" d="M89.742 202.318c-4.656 0-8.293-2.312-8.447-6.69h5.611a2.481 2.481 0 0 0 2.682 2.466c1.542 0 2.528-.771 2.528-2.035 0-4.008-10.821-1.85-10.759-9.526 0-4.1 3.36-6.382 7.892-6.382 4.717 0 7.892 2.343 8.108 6.474h-5.7a2.343 2.343 0 0 0-2.5-2.25 1.918 1.918 0 0 0-2.22 1.973c0 3.761 10.7 2.065 10.7 9.31-.003 3.642-2.837 6.66-7.895 6.66z" class="cls-1" transform="translate(-81.295 -180.152)"/>
                    <path id="Path_1454" d="M149.4 190.723h-2.1v-4.378h2.1v-4.193h5.272v4.193h3.453v4.378h-3.453v6.906c0 1.017.432 1.449 1.6 1.449h1.881v4.47h-2.682c-3.576 0-6.073-1.51-6.073-5.981z" class="cls-1" transform="translate(-128.986 -181.598)"/>
                    <path id="Path_1455" d="M213.552 214.466h-5.271v-2.343a6.268 6.268 0 0 1-5.21 2.528c-3.977 0-6.659-2.743-6.659-7.337v-10.05h5.241v9.341c0 2.343 1.326 3.638 3.3 3.638 2.035 0 3.33-1.295 3.33-3.638v-9.341h5.271z" class="cls-1" transform="translate(-164.473 -192.516)"/>
                    <path id="Path_1457" d="M361.474 214.072c-5.056 0-8.879-3.391-8.879-8.848s3.916-8.848 8.94-8.848c5.056 0 8.94 3.391 8.94 8.848s-3.945 8.848-9.001 8.848zm0-4.563c1.881 0 3.638-1.387 3.638-4.285 0-2.929-1.726-4.285-3.576-4.285-1.911 0-3.576 1.357-3.576 4.285-.001 2.897 1.603 4.285 3.514 4.285z" class="cls-1" transform="translate(-277.324 -191.875)"/>
                    <path id="Path_1458" d="M431.746 214.072c-4.593 0-7.676-2.559-7.923-5.889h5.21a2.415 2.415 0 0 0 2.651 2c1.356 0 2.066-.617 2.066-1.387 0-2.775-9.372-.771-9.372-7.091 0-2.929 2.5-5.333 7-5.333 4.439 0 6.906 2.466 7.245 5.857h-4.873a2.268 2.268 0 0 0-2.528-1.943c-1.233 0-1.912.493-1.912 1.326 0 2.744 9.311.8 9.4 7.214.003 2.995-2.648 5.246-6.964 5.246z" class="cls-1" transform="translate(-328.79 -191.875)"/>
                    <path id="Path_1459" d="M486.7 190.723h-2.1v-4.378h2.1v-4.193h5.271v4.193h3.453v4.378h-3.453v6.906c0 1.017.432 1.449 1.6 1.449h1.881v4.47h-2.682c-3.576 0-6.073-1.51-6.073-5.981z" class="cls-1" transform="translate(-372.707 -181.598)"/>
                </g>
            </g>
            <path id="Path_1427" fill="url(#linear-gradient)" d="M317.279 132.54a1.2 1.2 0 0 0-1.583-.6l-19.278 8.66a1.2 1.2 0 0 0-.19.111 22.1 22.1 0 0 1 9.3 3.568l6.525-5.919c.221-.236.507-.018.32.264l-5.113 7.026a18.275 18.275 0 0 1 5.253 8.367 1.142 1.142 0 0 0 .045-.134l4.8-20.583a1.2 1.2 0 0 0-.079-.76z" transform="translate(-236.596 -131.831)"/>
        </g>
    </g>
</svg>
