<svg xmlns="http://www.w3.org/2000/svg" width="14.744" height="14.744" viewBox="0 0 14.744 14.744">
    <path fill="#fff" d="M14.509.242a.8.8 0 0 0-.86-.178L.512 5.193A.805.805 0 0 0 .7 6.741l6.418.866a.027.027 0 0 1 .023.023L8 14.048a.8.8 0 0 0 .7.692.848.848 0 0 0 .1.006.794.794 0 0 0 .745-.512L14.687 1.1a.8.8 0 0 0-.178-.858zM.778 5.946c0-.021 0-.023.017-.028l12.286-4.8L7.335 6.86C7.3 6.849.8 5.97.8 5.97s-.019-.003-.022-.024zm8.049 8c-.005.013-.007.02-.028.017s-.022-.009-.024-.023-.88-6.5-.89-6.533l5.747-5.747z" transform="translate(0 -.001)"/>
</svg>
