<svg xmlns="http://www.w3.org/2000/svg" width="164.179" height="145.236" viewBox="0 0 164.179 145.236">
    <defs>
        <linearGradient id="j6nqu7r1wa" x1=".5" x2=".543" y1=".147" y2="1.086" gradientUnits="objectBoundingBox">
            <stop offset="0" stop-color="#3586ff"/>
            <stop offset="1" stop-color="#00d8ad"/>
        </linearGradient>
    </defs>
    <path fill="url(#j6nqu7r1wa)" d="M3181.877-461.764a9.483 9.483 0 0 1-9.472-9.472v-25.258a9.455 9.455 0 0 1 6.487-8.945l1.844-25.786h-29.29l1.841 25.786a9.455 9.455 0 0 1 6.488 8.945v25.258a9.483 9.483 0 0 1-9.472 9.472h-56.831a9.483 9.483 0 0 1-9.472-9.472v-25.258a9.454 9.454 0 0 1 6.488-8.945l5.731-80.123a9.5 9.5 0 0 1 9.44-8.809h.442v-3.157a9.483 9.483 0 0 1 9.472-9.472h12.627a9.484 9.484 0 0 1 9.472 9.472v3.157h.443a9.5 9.5 0 0 1 9.439 8.777l1.636 22.8h33.8l1.635-22.764a9.5 9.5 0 0 1 9.441-8.809h.442v-3.157a9.483 9.483 0 0 1 9.472-9.472h12.629a9.483 9.483 0 0 1 9.472 9.472v3.157h.442a9.5 9.5 0 0 1 9.44 8.777l5.73 80.155a9.453 9.453 0 0 1 6.488 8.945v25.258a9.483 9.483 0 0 1-9.472 9.472zm-3.158-34.73v25.258a3.159 3.159 0 0 0 3.158 3.157h56.831a3.159 3.159 0 0 0 3.159-3.157v-3.157h-31.574v-6.315h31.574v-6.315h-18.945v-6.315h18.945v-3.157a3.159 3.159 0 0 0-3.159-3.157h-56.831a3.159 3.159 0 0 0-3.158 3.158zm-88.4 25.258a3.158 3.158 0 0 0 3.158 3.157h56.823a3.159 3.159 0 0 0 3.158-3.157v-25.258a3.159 3.159 0 0 0-3.158-3.157h-56.831a3.158 3.158 0 0 0-3.158 3.157v3.157h18.944v6.315h-18.944v6.315h31.573v6.315h-31.573zm94.959-34.73h50.037l-4.941-69.461h-40.148l-.89 12.629h2.017a9.483 9.483 0 0 1 9.472 9.472v12.626a9.484 9.484 0 0 1-9.472 9.472h-4.269zm-88.4 0h50.037l-1.807-25.258h-4.268a9.483 9.483 0 0 1-9.472-9.472v-12.629a9.483 9.483 0 0 1 9.472-9.472h2.017l-.89-12.629h-40.147zm40.805-47.359v12.625a3.158 3.158 0 0 0 3.157 3.157h50.517a3.158 3.158 0 0 0 3.157-3.157v-12.629a3.158 3.158 0 0 0-3.157-3.157h-50.517a3.158 3.158 0 0 0-3.165 3.16zm53.231-31.795l-.239 3.379h39.251l-.24-3.379a3.192 3.192 0 0 0-3.157-2.936h-32.457a3.193 3.193 0 0 0-3.166 2.936zm-88.4 0l-.24 3.379h39.251l-.239-3.379a3.193 3.193 0 0 0-3.156-2.936h-32.47a3.192 3.192 0 0 0-3.16 2.936zm98.318-9.25h18.943zm-88.4 0h18.944zm34.731 50.517a3.158 3.158 0 0 1-3.158-3.157 3.158 3.158 0 0 1 3.158-3.157h37.887a3.159 3.159 0 0 1 3.158 3.157 3.16 3.16 0 0 1-3.158 3.157z" transform="translate(-3084 607)"/>
</svg>
