<svg xmlns="http://www.w3.org/2000/svg" width="88.201" height="92.5" viewBox="0 0 88.201 92.5">
    <defs>
        <linearGradient id="qo2ffhweua" x2="1" y1=".5" y2=".5" gradientUnits="objectBoundingBox">
            <stop offset="0" stop-color="#0086ff"/>
            <stop offset="1" stop-color="#00d8ad"/>
        </linearGradient>
    </defs>
    <path fill="url(#qo2ffhweua)" d="M383.994 134.784a5 5 0 0 0-6.6-2.515l-80.373 36.125a4.98 4.98 0 0 0-.791.464 92.144 92.144 0 0 1 38.76 14.877l27.2-24.676c.922-.982 2.112-.074 1.334 1.1l-21.319 29.291a76.193 76.193 0 0 1 21.9 34.883 4.761 4.761 0 0 0 .186-.56l20.009-85.816a5 5 0 0 0-.306-3.173z" transform="translate(-296.228 -131.831)"/>
</svg>
