<svg xmlns="http://www.w3.org/2000/svg" xmlns:xlink="http://www.w3.org/1999/xlink" width="73.665" height="64.453" viewBox="0 0 73.665 64.453">
  <defs>
    <clipPath id="clip-path">
      <path id="Path_1663" data-name="Path 1663" d="M0-.075,73.665,0V64.378L0,64.306Z" transform="translate(110.335 954.675)" fill="#fff"/>
    </clipPath>
    <linearGradient id="linear-gradient" x1="0.5" x2="0.5" y2="1" gradientUnits="objectBoundingBox">
      <stop offset="0" stop-color="#3586ff"/>
      <stop offset="1" stop-color="#00d8ad"/>
    </linearGradient>
  </defs>
  <g id="Mask_Group_28" data-name="Mask Group 28" transform="translate(-110.335 -954.599)" clip-path="url(#clip-path)">
    <path id="Path_1655" data-name="Path 1655" d="M12.195,72.862H71.925a1.2,1.2,0,0,0,1.195-1.195V44.329a1.2,1.2,0,0,0-1.195-1.195H61.638c-1.02-2.812-2.635-7.333-2.93-8.418-.351-1.292-6.735-6.612-18.97-15.811l-7.264-7.129a1.193,1.193,0,0,0-1.681.008L19.8,22.774a1.194,1.194,0,0,0-.085,1.594l6.324,7.843c.317,1.1,1.792,6.215,3.184,10.923H12.195A1.2,1.2,0,0,0,11,44.329V71.667A1.2,1.2,0,0,0,12.195,72.862Zm19.45-58.55,5.615,5.511L27.218,29.865,22.252,23.7Zm1.109,13.4,6.314-6.314C47.1,27.452,55.519,34.156,56.434,35.458c.374,1.3,1.833,5.378,2.663,7.676H39.955a1.195,1.195,0,0,0-1.186,1.338l.006.052a29.6,29.6,0,0,1,.075,5.562c-.018.175-.038.349-.062.521,0,0,0,0,0,0v.006c-.121.928-.512,3.085-1.52,3.085-.172,0-.344,0-.513,0a11.521,11.521,0,0,1-1.335-.071h0c-.584-.08-.584-.08-1.09-1.846-.152-.53-.332-1.159-.574-1.905q-.077-.236-.164-.513c-.1-.313-.21-.67-.328-1.052l-.175-.57c-.33-1.082-.71-2.358-1.115-3.747h0l0-.006C30.6,39.4,29.012,33.89,28.466,32Zm9.315,23.953a6.337,6.337,0,1,1-6.346,6.328,6.252,6.252,0,0,1,.068-.876c.011-.079.025-.157.04-.235A5.924,5.924,0,0,1,36,56.2c.013-.041.023-.084.036-.125h.007c.164.007.339.011.52.014h.056c.206,0,.422,0,.65,0,.088,0,.178,0,.269-.011.03,0,.061-.007.092-.011.061-.006.122-.013.184-.023.037-.006.074-.015.11-.022.057-.011.113-.023.17-.037.04-.011.081-.024.121-.036s.107-.033.161-.053.085-.035.128-.053.1-.044.153-.069.089-.047.133-.071.1-.055.145-.086.09-.06.135-.092.092-.067.138-.1.091-.075.136-.115.087-.08.129-.122.091-.091.136-.141.081-.093.121-.141.09-.11.134-.169.073-.1.11-.159.089-.131.131-.2c.033-.056.065-.116.1-.175.043-.078.086-.155.128-.239.029-.06.057-.126.085-.188.042-.092.084-.183.123-.282.024-.061.046-.128.069-.191.041-.111.082-.219.119-.339.008-.024.014-.051.021-.075.082-.269.156-.563.222-.875.018-.084.038-.163.055-.25.025,0,.049-.012.074-.016A6.2,6.2,0,0,1,42.069,51.661ZM13.389,45.524H29.931v.005l.09.3.173.587.057.191.184.617.062.206.167.556.07.23.138.453.079.257.122.4.074.238c.04.129.078.25.116.369l.06.19c.056.175.109.341.158.493.231.715.4,1.317.55,1.827.06.21.119.41.177.6.018.059.036.118.054.175q.072.233.149.45c.017.049.034.1.052.148.066.178.136.348.213.507.015.031.032.059.047.089a3.574,3.574,0,0,0,.211.36c.027.041.056.082.085.121a2.606,2.606,0,0,0,.277.317c.019.018.035.04.055.057a2.422,2.422,0,0,0,.341.261c-.02.067-.027.138-.046.2-.071.257-.128.517-.174.781-.02.113-.042.224-.057.339a8.723,8.723,0,1,0,8.654-7.583c-.239,0-.473.012-.7.03l-.058,0c0-.052,0-.1.005-.155q.018-.389.025-.768c0-.079,0-.156,0-.234,0-.3,0-.6,0-.881,0-.042,0-.079,0-.12-.006-.251-.014-.491-.024-.721,0-.07-.006-.136-.009-.2-.012-.248-.025-.485-.04-.7H70.731V70.472H13.389Z" transform="translate(80.29 975.565) rotate(-45)" fill="url(#linear-gradient)"/>
  </g>
</svg>
