<svg xmlns="http://www.w3.org/2000/svg" width="65.345" height="65.471" viewBox="0 0 65.345 65.471">
    <defs>
        <linearGradient id="j5czgqwaia" x1=".5" x2=".5" y2="1" gradientUnits="objectBoundingBox">
            <stop offset="0" stop-color="#3586ff"/>
            <stop offset="1" stop-color="#00d8ad"/>
        </linearGradient>
    </defs>
    <path fill="url(#j5czgqwaia)" d="M-5391.857-541.53a9.682 9.682 0 0 1-7.021-3.512l-11.979-14.594a24.246 24.246 0 0 1-11.152 2.685 25.033 25.033 0 0 1-24.99-24.99A25.092 25.092 0 0 1-5422.01-607a25.032 25.032 0 0 1 24.989 24.99 24.536 24.536 0 0 1-2.685 11.222l14.527 11.978a9.593 9.593 0 0 1 3.511 7.092 9.742 9.742 0 0 1-2.823 7.366 9.861 9.861 0 0 1-6.884 2.823zm-15.695-20.1l11.633 14.181a5.881 5.881 0 0 0 4.337 2.134 5.913 5.913 0 0 0 4.475-1.721 5.788 5.788 0 0 0 1.653-4.474 5.879 5.879 0 0 0-2.134-4.338l-14.113-11.635a23.659 23.659 0 0 1-5.851 5.851zm-35.661-20.31a21.212 21.212 0 0 0 21.2 21.2 21.212 21.212 0 0 0 21.2-21.2 21.212 21.212 0 0 0-21.2-21.2 21.212 21.212 0 0 0-21.2 21.198zm17.714 10.277a2.148 2.148 0 0 1 2.182-2.18 2.133 2.133 0 0 1 2.11 2.18 2.133 2.133 0 0 1-2.11 2.182 2.148 2.148 0 0 1-2.183-2.184zm.809-5.029l-.141-5.558h1.02c4.011 0 7.423-.775 7.423-5.031a4.314 4.314 0 0 0-4.678-4.574c-2.886 0-4.679 1.654-4.679 4.4h-3.025c-.036-4.257 3.061-7.072 7.669-7.072s7.774 2.779 7.774 7.248c0 5.136-3.553 7.247-8.479 7.247l-.1 3.342z" transform="translate(5447 607.001)"/>
</svg>
