<svg xmlns="http://www.w3.org/2000/svg" width="105.499" height="131.249" viewBox="0 0 105.499 131.249">
    <defs>
        <linearGradient id="linear-gradient" x1=".5" x2=".5" y1="-.511" y2="1.203" gradientUnits="objectBoundingBox">
            <stop offset="0" stop-color="#3586ff"/>
            <stop offset="1" stop-color="#00d8ad"/>
        </linearGradient>
        <style>
            .cls-1{fill:url(#linear-gradient)}
        </style>
    </defs>
    <g id="Group_659" transform="translate(-1214.905 -242.204)">
        <path id="Path_1624" d="M1263.009 278.758a22.5 22.5 0 1 0 22.5 22.5 22.5 22.5 0 0 0-22.5-22.5zm11.791 18.932l-12.861 12.977a3.23 3.23 0 0 1-2.382.953 3.552 3.552 0 0 1-2.381-.953l-6.438-6.438a3.453 3.453 0 0 1 4.883-4.883l4.056 4.054 10.478-10.478a3.523 3.523 0 0 1 4.884 0 3.633 3.633 0 0 1-.239 4.768z" class="cls-1" transform="translate(4.646 6.634)"/>
        <path id="Path_1625" d="M1265 267.807a35.445 35.445 0 1 0 0 70.89h.048a35.445 35.445 0 0 0-.048-70.89zm20.908 56.321a29.326 29.326 0 0 1-20.861 8.661H1265a29.517 29.517 0 1 1 20.908-8.661z" class="cls-1" transform="translate(2.658 4.646)"/>
        <path id="Path_1626" d="M1320.4 274.272a7.024 7.024 0 0 0-6.135-6.816l-.089-.011c-30.843-3.117-39.945-20.62-40.3-21.327a6.907 6.907 0 0 0-12.433-.034c-.372.743-9.451 18.252-40.342 21.366a6.958 6.958 0 0 0-6.2 6.9v32.62c0 38.331 44.383 63.016 49.512 65.741l.14.07a7.2 7.2 0 0 0 3.021.675h.1a7.59 7.59 0 0 0 3.016-.645l.3-.149a127.614 127.614 0 0 0 25.691-18.516c15.741-14.777 23.722-30.649 23.722-47.174zm-5.906 32.7c0 34.5-40.867 57.568-46.26 60.463a1.736 1.736 0 0 1-.623.115 1.425 1.425 0 0 1-.493-.09c-4.74-2.518-46.308-25.609-46.308-60.488v-32.611a1.045 1.045 0 0 1 .911-1.037c33.492-3.375 43.928-22.439 45.023-24.635a1.014 1.014 0 0 1 .9-.578 1.042 1.042 0 0 1 .935.614c1.081 2.16 11.527 21.195 44.947 24.591a1.127 1.127 0 0 1 .97 1.031z" class="cls-1"/>
    </g>
</svg>
