<svg xmlns="http://www.w3.org/2000/svg" width="178.551" height="178.546" viewBox="0 0 178.551 178.546">
    <defs>
        <linearGradient id="linear-gradient" x1=".5" x2=".5" y2="1" gradientUnits="objectBoundingBox">
            <stop offset="0" stop-color="#3586ff"/>
            <stop offset="1" stop-color="#00d8ad"/>
        </linearGradient>
        <style>
            .cls-1{fill:url(#linear-gradient)}
        </style>
    </defs>
    <g id="noun_goal_2382253" transform="translate(-18.676 -4.295)">
        <path id="Path_1610" d="M143.458 47.348l-1.184 1.184a70.78 70.78 0 1 1-18.747-18.747l1.184-1.184-.159-8.554a79.813 79.813 0 1 0 27.46 27.46z" class="cls-1" transform="translate(14.382 15.076)"/>
        <path id="Path_1611" d="M61.944 23.944a42.051 42.051 0 0 1 19.07 4.586l6.513-6.517a51.413 51.413 0 1 0 18.747 18.751l-6.513 6.513a42.373 42.373 0 1 1-37.817-23.333z" class="cls-1" transform="translate(36.267 36.96)"/>
        <path id="Path_1612" d="M137.373 27.042a4.37 4.37 0 0 0-4.577-2.395l-17.859 2.545 2.549-17.859a4.417 4.417 0 0 0-7.5-3.747L89.571 26.013a4.4 4.4 0 0 0-1.295 3.2l.336 18.058-38.165 38.168a21.458 21.458 0 1 0 6.248 6.248L94.86 53.521l18.058.34H113a4.407 4.407 0 0 0 3.124-1.295l20.421-20.421a4.427 4.427 0 0 0 .828-5.103zm-86.029 76.269a12.615 12.615 0 1 1-7.383-11.39l-9.217 9.221 6.248 6.248 9.217-9.221a12.3 12.3 0 0 1 1.135 5.142zM111.2 44.989l-13.8-.261-.256-13.8 9.716-9.72-1.511 10.573a4.415 4.415 0 0 0 5 5l10.573-1.511z" class="cls-1" transform="translate(59.388)"/>
    </g>
</svg>
