<svg xmlns="http://www.w3.org/2000/svg" width="43" height="43" viewBox="0 0 43 43">
    <defs>
        <clipPath id="clip-path">
            <path id="Rectangle_1" d="M0 0H8V14.548H0z" class="cls-1"/>
        </clipPath>
        <style>
            .cls-1{fill:#191d49}
        </style>
    </defs>
    <g id="Group_647" transform="translate(-388 -5936)">
        <circle id="Ellipse_89" cx="21.5" cy="21.5" r="21.5" fill="#fff" opacity="0.9" transform="translate(388 5936)"/>
        <g id="Group_2" transform="translate(406 5951)">
            <g id="Group_1" clip-path="url(#clip-path)">
                <path id="Path_1" d="M284.146 382.795h-1.866a3.276 3.276 0 0 0-3.45 3.541v1.633h-1.876a.293.293 0 0 0-.294.293v2.366a.294.294 0 0 0 .294.293h1.876v5.969a.293.293 0 0 0 .293.293h2.448a.293.293 0 0 0 .293-.293v-5.969h2.193a.294.294 0 0 0 .294-.293v-2.366a.293.293 0 0 0-.294-.293h-2.194v-1.384c0-.665.158-1 1.025-1h1.256a.294.294 0 0 0 .294-.293v-2.2a.294.294 0 0 0-.293-.294zm0 0" class="cls-1" transform="translate(-276.537 -382.81)"/>
            </g>
        </g>
    </g>
</svg>
