<svg xmlns="http://www.w3.org/2000/svg" width="35" height="35" viewBox="0 0 35 35">
    <g transform="translate(-511 -5936.302)">
        <circle cx="17.5" cy="17.5" r="17.5" fill="#191d49" transform="translate(511 5936.302)"/>
        <path fill="#fff" d="M9.4 0H2.475A2.475 2.475 0 0 0 0 2.475V9.4a2.475 2.475 0 0 0 2.475 2.475H9.4A2.475 2.475 0 0 0 11.879 9.4V2.475A2.475 2.475 0 0 0 9.4 0zM3.96 9.4H2.475V3.96H3.96zm-.743-6.068a.873.873 0 1 1 .866-.873.87.87 0 0 1-.866.873zM9.9 9.4H8.415V6.631c0-1.667-1.98-1.541-1.98 0V9.4H4.95V3.96h1.485v.874A1.883 1.883 0 0 1 9.9 6.059z" transform="translate(523 5948.302)"/>
    </g>
</svg>
