<svg xmlns="http://www.w3.org/2000/svg" width="35" height="35" viewBox="0 0 35 35">
  <g id="Group_744" data-name="Group 744" transform="translate(-272 -676)">
    <circle id="Ellipse_91" data-name="Ellipse 91" cx="17.5" cy="17.5" r="17.5" transform="translate(272 676)" fill="#191d49"/>
    <g id="icons_Q2" data-name="icons Q2" transform="translate(282.487 686.548)">
      <path id="Path_1664" data-name="Path 1664" d="M11.207,5.3h2.919a3.883,3.883,0,0,1,1.333.253,2.417,2.417,0,0,1,1.369,1.373,3.91,3.91,0,0,1,.252,1.337c.036.759.036,1.012.036,2.926s0,2.168-.036,2.926a3.91,3.91,0,0,1-.252,1.337,2.417,2.417,0,0,1-1.369,1.373,3.883,3.883,0,0,1-1.333.253H8.288a3.883,3.883,0,0,1-1.333-.253,2.417,2.417,0,0,1-1.369-1.373,3.91,3.91,0,0,1-.252-1.337C5.3,13.356,5.3,13.1,5.3,11.189s0-2.168.036-2.926a3.91,3.91,0,0,1,.252-1.337A2.417,2.417,0,0,1,6.955,5.553,3.883,3.883,0,0,1,8.288,5.3h2.919m0-1.3H8.252a6.436,6.436,0,0,0-1.766.325,3.6,3.6,0,0,0-1.261.9A3.071,3.071,0,0,0,4.4,6.493a5.25,5.25,0,0,0-.36,1.77C4,9.021,4,9.274,4,11.225s0,2.2.036,2.962a5.25,5.25,0,0,0,.36,1.77,3.071,3.071,0,0,0,.829,1.264,3.062,3.062,0,0,0,1.261.831,5.214,5.214,0,0,0,1.766.361h5.91a5.214,5.214,0,0,0,1.766-.361,3.062,3.062,0,0,0,1.261-.831,3.613,3.613,0,0,0,.865-1.264,6.481,6.481,0,0,0,.324-1.77c.036-.759.036-1.012.036-2.962s0-2.2-.036-2.962a6.481,6.481,0,0,0-.324-1.77,3.613,3.613,0,0,0-.865-1.264,3.6,3.6,0,0,0-1.261-.867,6.436,6.436,0,0,0-1.766-.325H11.207" transform="translate(-4 -4)" fill="#fff"/>
      <path id="Path_1667" data-name="Path 1667" d="M1.528-.279H11.733a1,1,0,0,1,1,1V11a1,1,0,0,1-1,1H1.528a1,1,0,0,1-1-1V.721A1,1,0,0,1,1.528-.279Z" transform="translate(0.513 1.452)" fill="#fff"/>
      <g id="Group_743" data-name="Group 743">
        <path id="Path_1666" data-name="Path 1666" d="M33.97,11.735a.835.835,0,1,1-.835-.835.835.835,0,0,1,.835.835" transform="translate(-22.054 -8.395)" fill="#191d49"/>
        <path id="Path_1665" data-name="Path 1665" d="M17.532,13.7a3.85,3.85,0,1,0,3.832,3.85,3.841,3.841,0,0,0-3.832-3.85m0,6.354a2.5,2.5,0,1,1,2.493-2.5,2.5,2.5,0,0,1-2.493,2.5" transform="translate(-10.325 -10.325)" fill="#191d49"/>
      </g>
    </g>
  </g>
</svg>
